<svg version="1.1" id="svg1" xmlns="http://www.w3.org/2000/svg" xmlns:svg="http://www.w3.org/2000/svg" viewBox="3.35 130.45 210.9 22.25">
  <title>ARVIO</title><defs id="defs1"/>
  <g id="layer1">
    <g id="g120" transform="matrix(0.26458333,0,0,0.26458333,10.867372,-41.762267)">
      <path fill="#fafafb" d="m 26.265573,651.08242 c 3.74,-0.1 7.48,-0.1 8.3,0 1.78,0.19 1.74,0.15 4.98,5.97 1.37,2.47 6.53,11.66 11.46,20.43 19.82,35.24 31.65,56.69 31.38,56.95 -0.09,0.09 -3.23,0.17 -6.97,0.17 h -6.81 l -1.49,-2.49 c -0.83,-1.37 -2.77,-4.81 -4.32,-7.64 -4.81,-8.78 -26.7,-48.39 -33.21,-60.11 -0.78,-1.41 -0.9,-1.49 -1.99,-1.33 -1.27,0.18 -1.96,1.15 -5.98,8.47 -1,1.83 -3.1,5.56 -4.65,8.3 -3.24,5.72 -8.83,15.62 -13.12,23.25 -1.64,2.92 -5.98,10.54 -9.63,16.94 -3.65,6.39 -7.009997,12.29 -7.469997,13.11 l -0.83,1.5 h -7.14 c -3.93,0 -7.14,-0.08 -7.14,-0.17 0,-0.21 2.23,-4.22 7.47,-13.45 5.56,-9.78 8.15,-14.37 10.13,-17.93 0.909997,-1.65 2.109997,-3.74 2.659997,-4.65 1.66,-2.78 19.73,-34.52 23.24,-40.85 1.83,-3.29 3.55,-6.05 3.82,-6.14 0.28,-0.1 3.57,-0.24 7.31,-0.33" fill-rule="evenodd" id="use115"/>
      <path fill="#fbfbfc" d="m 455.16559,651.08242 c 0,-0.1 0.08,-0.1 0.17,0 0.09,0.09 -0.21,0.76 -0.67,1.49 -0.45,0.73 -2.84,4.84 -5.31,9.13 -2.47,4.3 -4.93,8.55 -5.48,9.47 -1,1.66 -10.45,17.96 -12.62,21.75 -0.36,0.64 -2.68,4.67 -5.15,8.97 -2.46,4.29 -6.79,11.84 -9.63,16.77 -2.83,4.93 -5.37,9.34 -5.64,9.79 -0.28,0.46 -1.17,2.03 -2,3.49 l -1.49,2.66 -9.46,0.16 -9.47,0.17 -0.83,-1.49 c -3.51,-6.32 -26.13,-46.22 -29.56,-52.14 -1,-1.74 -5.18,-9.06 -9.29,-16.28 -4.12,-7.21 -7.55,-13.26 -7.64,-13.45 -0.11,-0.22 2.38,-0.27 7.3,-0.16 l 7.48,0.16 3.81,6.48 c 2.11,3.56 5.54,9.54 7.64,13.28 2.1,3.75 5.84,10.4 8.31,14.78 2.46,4.39 5.23,9.32 6.14,10.96 0.91,1.64 2.18,3.89 2.82,4.98 2.32,3.98 10.16,17.99 10.96,19.6 l 0.83,1.66 h 1.66 c 1.46,0 1.7,-0.1 1.99,-0.83 0.19,-0.46 1.76,-3.37 3.49,-6.48 4,-7.16 7.65,-13.72 9.96,-17.93 3.81,-6.92 18.77,-33.18 23.08,-40.52 1.83,-3.1 3.33,-5.79 3.33,-5.98 0,-0.21 2.76,-0.33 7.63,-0.33 4.21,0 7.64,-0.07 7.64,-0.16" fill-rule="evenodd" id="use116"/>
      <path fill="#fafafb" d="m 687.96559,651.24242 c 1.51,-0.19 11.46,-0.33 23.08,-0.33 h 20.43 l -0.17,5.98 -0.16,5.97 -21.26,0.34 c -19.95,0.31 -21.37,0.37 -23.08,0.99 -2.95,1.08 -4.65,2.63 -5.98,5.48 -1.73,3.71 -1.82,4.93 -1.82,23.42 0,13.72 0.09,17.4 0.49,19.42 0.85,4.25 2.67,6.9 5.82,8.47 3.24,1.63 3.96,1.66 32.38,1.66 22.72,0 27,-0.07 28.56,-0.5 2.73,-0.74 5.01,-2.01 6.31,-3.48 3.36,-3.85 3.48,-4.73 3.48,-25.74 0,-14.69 -0.08,-18.11 -0.5,-19.76 -0.27,-1.1 -0.49,-2.07 -0.49,-2.16 0,-0.09 2.99,-0.17 6.64,-0.17 h 6.64 l 0.17,1.17 c 0.09,0.64 0.16,10.35 0.16,21.58 0,16.83 -0.08,20.87 -0.5,22.92 -1.45,7.26 -6.44,13.63 -12.62,16.11 -4.98,1.99 -4.98,1.99 -38.02,1.99 -25.46,0 -30.64,-0.08 -32.88,-0.5 -6,-1.13 -11.75,-4.88 -14.78,-9.63 -3.37,-5.3 -3.48,-6.33 -3.48,-31.55 0,-19.87 0.04,-21.26 0.66,-24.08 2.32,-10.43 9.08,-16.12 20.92,-17.6" fill-rule="evenodd" id="use117"/>
      <path fill="#0bfab6" d="m 739.60559,656.72242 0.17,-5.81 h 2.16 c 6.3,0 11.81,1.01 15.44,2.82 2.93,1.47 7.97,7.14 7.97,8.97 0,0.44 -1.55,0.48 -12.62,0.33 -6.94,-0.09 -12.77,-0.24 -12.95,-0.33 -0.21,-0.11 -0.27,-2.27 -0.17,-5.98" fill-rule="evenodd" id="use118"/>
      <path fill="#fafafb" d="m 168.23559,657.05242 v -5.81 l 37.36,0.17 c 31.61,0.14 37.69,0.24 39.52,0.66 4.16,0.96 8.2,3.2 10.79,5.98 4.58,4.9 5.32,7.64 5.32,19.76 0,9.87 -0.25,11.62 -2.33,16.11 -2.87,6.23 -11.57,11.12 -19.76,11.12 -1,0 -1.82,0.07 -1.82,0.17 0,0.09 2.09,2.63 4.65,5.64 2.55,3.01 7.63,9.07 11.29,13.45 3.65,4.39 7.09,8.49 7.64,9.14 l 0.99,1.16 h -8.13 -8.14 l -12.29,-14.78 -12.29,-14.78 h -19.92 -19.93 v 14.78 14.78 h -6.47 -6.48 v -20.43 -20.42 l 1.66,-0.17 c 0.91,-0.09 16.61,-0.16 34.87,-0.16 28.42,0 33.5,-0.08 35.2,-0.5 6.3,-1.57 8.97,-5.93 8.97,-14.61 0,-7.65 -1.74,-11.67 -5.98,-13.78 -2.56,-1.29 -3.92,-1.33 -39.68,-1.33 -19.28,0 -35.04,-0.08 -35.04,-0.17 v -5.98" fill-rule="evenodd" id="use119"/>
      <path fill="#fbfbfc" d="m 562.43559,734.60242 v -83.36 h -12.95 v 83.36 h 12.95" fill-rule="evenodd" id="use120"/>
    </g>
  </g>
  </svg>