<?xml version="1.0" encoding="UTF-8" standalone="no"?>
<svg
   viewBox="0 0 1000 467.64297"
   version="1.1"
   width="1000"
   height="467.64297"
   xml:space="preserve"
   id="svg6"
   sodipodi:docname="HBO Max.svg"
   inkscape:version="1.3.2 (091e20e, 2023-11-25, custom)"
   xmlns:inkscape="http://www.inkscape.org/namespaces/inkscape"
   xmlns:sodipodi="http://sodipodi.sourceforge.net/DTD/sodipodi-0.dtd"
   xmlns="http://www.w3.org/2000/svg"
   xmlns:svg="http://www.w3.org/2000/svg"><defs
     id="defs6" /><sodipodi:namedview
     id="namedview6"
     pagecolor="#ffffff"
     bordercolor="#111111"
     borderopacity="1"
     inkscape:showpageshadow="0"
     inkscape:pageopacity="0"
     inkscape:pagecheckerboard="1"
     inkscape:deskcolor="#d1d1d1"
     inkscape:zoom="0.6"
     inkscape:cx="484.16667"
     inkscape:cy="234.16667"
     inkscape:window-width="1366"
     inkscape:window-height="705"
     inkscape:window-x="-8"
     inkscape:window-y="-8"
     inkscape:window-maximized="1"
     inkscape:current-layer="svg6" /><path
     d="m 157.65039,193.92383 c -27.28325,0 -54.99906,12.13274 -90.515624,39.41601 V 200.85742 H 0 V 460.69141 H 71.466797 V 299.1582 c 31.183273,-24.68327 45.466023,-32.48437 57.166013,-32.48437 13.84999,0 22.95117,8.66647 22.95117,30.3164 v 163.70118 h 71.44922 v -161.9668 c 31.18326,-24.24994 45.05132,-32.05078 57.16797,-32.05078 13.86666,0 22.94922,8.66647 22.94922,30.3164 v 163.70118 h 71.45117 V 271.875 c 0,-58.46652 -33.35046,-77.95117 -65.40039,-77.95117 -27.28325,0 -55.00155,11.26583 -91.38476,38.98242 -11.66666,-29.03326 -37.21605,-38.98242 -60.16602,-38.98242 z m 362.05273,0 c -71.01624,0 -129.91796,61.06666 -129.91796,136.84961 0,75.78291 58.90172,136.85156 129.91796,136.85156 35.08314,0 65.40095,-12.98191 88.80079,-41.14844 v 34.21485 h 67.99804 V 200.85742 h -67.99804 v 34.21485 c -23.39984,-28.16652 -53.71765,-41.14844 -88.80079,-41.14844 z m 169.34961,6.93359 c 29.44798,45.89685 62.7967,87.04424 101.77735,128.19141 -38.98065,42.86374 -72.32937,87.47893 -101.77735,131.64258 h 86.17774 c 20.3486,-32.91441 43.29894,-62.79726 69.73047,-90.94532 25.98156,28.14806 47.62886,58.03091 67.99414,90.94532 H 1000 C 970.11872,415.22784 937.6369,371.91257 898.65625,329.04883 937.20362,287.90166 970.11872,245.47102 1000,200.85742 h -85.31055 c -21.21522,32.91441 -44.1636,60.62871 -69.72851,87.91016 -25.98156,-27.28145 -48.93189,-54.99575 -69.73047,-87.91016 z M 530.51758,254.125 c 42.4637,0 76.65039,34.18474 76.65039,76.64844 0,42.46371 -34.18669,76.65039 -76.65039,76.65039 -42.46371,0 -76.64844,-34.18668 -76.64844,-76.65039 0,-42.4637 34.18473,-76.64844 76.64844,-76.64844 z m 0,17.31641 c -32.8704,0 -59.33203,26.46164 -59.33203,59.33203 0,32.87039 26.46163,59.33398 59.33203,59.33398 32.87039,0 59.33398,-26.46359 59.33398,-59.33398 0,-32.87039 -26.46359,-59.33203 -59.33398,-59.33203 z"
     style="opacity:1;fill:#002be7;stroke-width:1.66668"
     id="path6" /><path
     d="m 605.2832,0 c -47.46851,0 -71.48743,34.524071 -77.30273,48.595703 0,-20.825608 -20.82817,-45.7812499 -45.0293,-45.7812499 H 404.71094 V 171.30078 h 72.79883 c 29.64317,0 50.4707,-25.3285 50.4707,-47.46875 6.56574,13.69716 29.83422,48.2207 77.30273,48.2207 46.90382,0 85.17969,-39.0276 85.17969,-86.496089 C 690.46289,37.337177 652.18702,0 605.2832,0 Z M 272.99805,2.8144531 V 171.30078 h 46.90625 v -65.29101 h 29.64453 v 65.29101 h 45.78125 V 2.8144531 H 349.54883 V 65.669922 H 319.9043 V 2.8144531 Z M 448.42773,40.339844 h 23.26563 c 6.75198,0 12.19727,6.567591 12.19726,14.072265 0,7.504656 -5.44528,14.070313 -12.19726,14.070313 h -23.26563 z m 156.85547,2.4375 c 23.63766,0 42.77735,19.138403 42.77735,42.779297 0,23.828609 -19.13969,42.964839 -42.77735,42.964839 -23.64013,0 -42.77929,-19.13623 -42.77929,-42.964839 0,-23.640894 19.13916,-42.779297 42.77929,-42.779297 z m 0,9.193359 c -18.76599,0 -33.77148,14.822914 -33.77148,33.585938 0,18.761029 15.00549,33.771489 33.77148,33.771489 18.19881,0 33.58203,-15.01046 33.58203,-33.771489 0,-18.763024 -15.38322,-33.585938 -33.58203,-33.585938 z m -85.18359,23.267578 c -1.31291,4.501402 -1.31291,18.762235 0,23.265625 -3.75073,-5.442058 -12.19568,-12.008847 -17.63477,-12.947265 5.43909,-0.37549 14.25827,-6.566658 17.63477,-10.31836 z m -71.67188,28.330079 h 23.26563 c 6.75198,0 12.19727,6.56761 12.19726,14.07227 0,7.8799 -5.44528,14.44726 -12.19726,14.44726 h -23.26563 z"
     style="fill:#002be7;fill-rule:evenodd;stroke-width:0.24767"
     id="path7" /></svg>
