<svg width="200" height="100" viewBox="0 0 200 100" xmlns="http://www.w3.org/2000/svg">
  <g fill="#ffffff">
    <path d="M52.7 28.6c2.2-2.7 3.7-6.4 3.3-10.1-3.2.16-7 2.1-9.3 4.8-2 2.3-3.9 6.1-3.4 9.7 3.6.3 7.2-1.8 9.4-4.4zm3.2 5.1c-5.2-.3-9.6 2.9-12 2.9-2.5 0-6.3-2.8-10.3-2.7-5.3.1-10.2 3.1-12.9 7.8-5.5 9.6-1.4 23.7 4 31.5 2.6 3.8 5.7 8.1 9.8 8 3.9-.2 5.4-2.5 10.2-2.5 4.7 0 6.1 2.5 10.3 2.4 4.2-.1 6.9-3.9 9.5-7.7 3-4.4 4.2-8.6 4.3-8.8-.1-.1-8.2-3.2-8.3-12.7-.1-7.9 6.5-11.7 6.8-11.9-3.7-5.5-9.5-6.1-11.4-6.3z"/>
    <path d="M92.5 24.9v10.5h8.4v8.2h-8.4v22.6c0 4 1.7 5.9 5.5 5.9 1 0 2.5-.1 3-.2v8.2c-1 .3-3 .5-5.2.5-9.4 0-13.5-3.7-13.5-13.1V43.6h-6.4v-8.2h6.4V24.9h10.2z"/>
    <path d="M103.8 35.4h10.7l9.4 33.7h.2l9.4-33.7h10.5L129.9 80.5h-11.2l-14.9-45.1z"/>
    <path d="M168.9 35.4h9.5v9.6h9.6v8h-9.6v9.6h-9.5v-9.6h-9.6v-8h9.6v-9.6z" transform="translate(0 6)"/>
  </g>
</svg>
