<svg xmlns="http://www.w3.org/2000/svg" viewBox="0 0 600 336">
    <path fill="#ff5e00" d="M0 276.1a39.5 39.5 0 0 1 74.8-17.8l-16.2 8a21.2 21.2 0 0 0-19-12.8A22 22 0 0 0 18 276.1a22 22 0 0 0 21.6 22.7c8.6 0 15.6-5.4 19-12.7l16.2 8A39.5 39.5 0 0 1 0 276zm81-18.4h17v9.2c3.2-5.8 8-9.2 13.8-9.2h4.8v16.7H111c-8.1 0-11.9 4.5-11.9 12.3v28h-18zm41.5 32.6v-32.6h18v32.6c0 6.2 4 10.1 10 10.1s10-3.9 10-10.1v-32.6h18.1v32.6c0 15.1-11.9 25.5-28 25.5-16.3 0-28.1-10.4-28.1-25.5zm64.7-32.6h17.6v7c4-4.7 9.6-7.6 16.1-7.6 14 0 23 10.1 23 24.7v32.9h-18v-32.9c0-6-4.4-10.6-10.3-10.6-6 0-10.4 4.6-10.4 10.6v32.9h-18v-57zm106.6 33.7 14.7 7a29.6 29.6 0 0 1-27.1 17.4c-16.7 0-30-13.2-30-29.6a29.7 29.7 0 0 1 30-29.7c12.4 0 22.5 7.3 27.2 17.6l-14.8 7c-2-5.2-6.7-8.9-12.4-8.9-7.6 0-13.3 6.2-13.3 14 0 7.7 5.7 13.9 13.3 13.9 5.6 0 10.3-3.6 12.4-8.7zm20.5-53.7h18v26.8c4-4.6 9.5-7.4 15.8-7.4 13.9 0 23 10.1 23 24.7v32.9h-18v-32.9c0-6-4.4-10.6-10.4-10.6s-10.4 4.6-10.4 10.6v32.9h-18v-77zm89.5 54 12.1-34h18L411 318c-4.8 12.5-12.3 17.9-25 17.9h-8.3v-15.7h8.2c5 0 7.4-2 8.8-5.5l-22.7-57.1h19.3l12.6 34zm34.7-34h17v9.2c3-5.8 7.9-9.2 13.7-9.2h4.8v16.7h-5.6c-8.1 0-11.9 4.5-11.9 12.3v28h-18zm38 28.5a29.9 29.9 0 0 1 30.2-29.7 29.9 29.9 0 0 1 30.2 29.7 29.9 29.9 0 0 1-30.2 29.6 29.8 29.8 0 0 1-30.2-29.6zm16.8 0a13.4 13.4 0 1 0 26.9 0 13.4 13.4 0 1 0-27 0zm72.1 28.5c-14.9 0-21-6.6-21-20.8v-56.2h18v56.2c0 3.2 1.3 5 4.5 5h3v15.8h-4.5zm30.2 0c-15 0-21.1-6.6-21.1-20.8v-56.2h18v56.2c0 3.2 1.3 5 4.5 5h3v15.8h-4.4zM224.2 112a87.9 87.9 0 0 1 175.6-6l.2-5.9a100 100 0 1 0-93.3 99.7c-46-2.8-82.5-41-82.5-87.8zm135.7 1.3a34.2 34.2 0 0 1-11.5-66.4 75 75 0 1 0 38.8 52.7 34.1 34.1 0 0 1-27.3 13.7z"/>
</svg>
